<?xml version="1.0" encoding="UTF-8" standalone="no"?>
<!DOCTYPE svg PUBLIC "-//W3C//DTD SVG 1.0//EN"
 "http://www.w3.org/TR/2001/REC-SVG-20010904/DTD/svg10.dtd" [
 <!ATTLIST svg xmlns:xlink CDATA #FIXED "http://www.w3.org/1999/xlink">
]>
<!-- Generated by dot version 2.7.20060111.0540 (Fri Sep  3 08:16:42 UTC 2010)
     For user: (thomas) Thomas,,, -->
<!-- Title: G Pages: 1 -->
<svg width="430px" height="398px"
 viewBox = "0 0 323 299"
 xmlns="http://www.w3.org/2000/svg" xmlns:xlink="http://www.w3.org/1999/xlink">
<g id="graph0" class="graph" style="font-family:Times-Roman;font-size:14.00;">
<title>G</title>
<polygon style="fill:white;stroke:white;" points="0,299 0,-11 334,-11 334,299 0,299"/>
<!-- 140604685560672 -->
<g id="node1" class="node"><title>140604685560672</title>
<polygon style="fill:none;stroke:black;" points="6,70 318,70 318,6 6,6 6,70"/>
<text text-anchor="middle" x="58" y="28">InputLayer</text>
<polyline style="fill:none;stroke:black;" points="6,38 110,38 "/>
<text text-anchor="middle" x="58" y="60">InputLayer</text>
<polyline style="fill:none;stroke:black;" points="110,70 110,6 "/>
<text text-anchor="middle" x="147" y="28">input:</text>
<polyline style="fill:none;stroke:black;" points="110,38 184,38 "/>
<text text-anchor="middle" x="147" y="60">output:</text>
<polyline style="fill:none;stroke:black;" points="184,70 184,6 "/>
<text text-anchor="middle" x="251" y="28">[(None, 3608)]</text>
<polyline style="fill:none;stroke:black;" points="184,38 318,38 "/>
<text text-anchor="middle" x="251" y="60">[(None, 3608)]</text>
</g>
<!-- 140604685560192 -->
<g id="node2" class="node"><title>140604685560192</title>
<polygon style="fill:none;stroke:black;" points="27,182 296,182 296,118 27,118 27,182"/>
<text text-anchor="middle" x="63" y="140">dense1</text>
<polyline style="fill:none;stroke:black;" points="27,150 100,150 "/>
<text text-anchor="middle" x="63" y="172">Dense</text>
<polyline style="fill:none;stroke:black;" points="100,182 100,118 "/>
<text text-anchor="middle" x="138" y="140">input:</text>
<polyline style="fill:none;stroke:black;" points="100,150 175,150 "/>
<text text-anchor="middle" x="138" y="172">output:</text>
<polyline style="fill:none;stroke:black;" points="175,182 175,118 "/>
<text text-anchor="middle" x="235" y="140">(None, 3608)</text>
<polyline style="fill:none;stroke:black;" points="175,150 296,150 "/>
<text text-anchor="middle" x="235" y="172">(None, 1024)</text>
</g>
<!-- 140604685560672&#45;&gt;140604685560192 -->
<g id="edge2" class="edge"><title>140604685560672&#45;&gt;140604685560192</title>
<path style="fill:none;stroke:black;" d="M162,70C162,80 162,92 162,104"/>
<polygon style="fill:black;stroke:black;" points="167,104 162,118 158,104 167,104"/>
</g>
<!-- 140604685565712 -->
<g id="node3" class="node"><title>140604685565712</title>
<polygon style="fill:none;stroke:black;" points="6,294 319,294 319,230 6,230 6,294"/>
<text text-anchor="middle" x="64" y="252">OutputLayer</text>
<polyline style="fill:none;stroke:black;" points="6,262 123,262 "/>
<text text-anchor="middle" x="64" y="284">Dense</text>
<polyline style="fill:none;stroke:black;" points="123,294 123,230 "/>
<text text-anchor="middle" x="160" y="252">input:</text>
<polyline style="fill:none;stroke:black;" points="123,262 198,262 "/>
<text text-anchor="middle" x="160" y="284">output:</text>
<polyline style="fill:none;stroke:black;" points="198,294 198,230 "/>
<text text-anchor="middle" x="258" y="252">(None, 1024)</text>
<polyline style="fill:none;stroke:black;" points="198,262 319,262 "/>
<text text-anchor="middle" x="258" y="284">(None, 1)</text>
</g>
<!-- 140604685560192&#45;&gt;140604685565712 -->
<g id="edge4" class="edge"><title>140604685560192&#45;&gt;140604685565712</title>
<path style="fill:none;stroke:black;" d="M162,182C162,192 162,204 162,216"/>
<polygon style="fill:black;stroke:black;" points="167,216 162,230 158,216 167,216"/>
</g>
</g>
</svg>
