<?xml version="1.0" encoding="UTF-8" standalone="no"?>
<!DOCTYPE svg PUBLIC "-//W3C//DTD SVG 1.0//EN"
 "http://www.w3.org/TR/2001/REC-SVG-20010904/DTD/svg10.dtd" [
 <!ATTLIST svg xmlns:xlink CDATA #FIXED "http://www.w3.org/1999/xlink">
]>
<!-- Generated by dot version 2.7.20060111.0540 (Fri Sep  3 08:16:42 UTC 2010)
     For user: (thomas) Thomas,,, -->
<!-- Title: G Pages: 1 -->
<svg width="476px" height="697px"
 viewBox = "0 0 357 523"
 xmlns="http://www.w3.org/2000/svg" xmlns:xlink="http://www.w3.org/1999/xlink">
<g id="graph0" class="graph" style="font-family:Times-Roman;font-size:14.00;">
<title>G</title>
<polygon style="fill:white;stroke:white;" points="0,523 0,-11 368,-11 368,523 0,523"/>
<!-- 140433558462640 -->
<g id="node1" class="node"><title>140433558462640</title>
<polygon style="fill:none;stroke:black;" points="5,70 352,70 352,6 5,6 5,70"/>
<text text-anchor="middle" x="65" y="28">lstm_1_input</text>
<polyline style="fill:none;stroke:black;" points="5,38 125,38 "/>
<text text-anchor="middle" x="65" y="60">InputLayer</text>
<polyline style="fill:none;stroke:black;" points="125,70 125,6 "/>
<text text-anchor="middle" x="163" y="28">input:</text>
<polyline style="fill:none;stroke:black;" points="125,38 200,38 "/>
<text text-anchor="middle" x="163" y="60">output:</text>
<polyline style="fill:none;stroke:black;" points="200,70 200,6 "/>
<text text-anchor="middle" x="276" y="28">[(None, 128, 49)]</text>
<polyline style="fill:none;stroke:black;" points="200,38 352,38 "/>
<text text-anchor="middle" x="276" y="60">[(None, 128, 49)]</text>
</g>
<!-- 140433558462688 -->
<g id="node2" class="node"><title>140433558462688</title>
<polygon style="fill:none;stroke:black;" points="36,182 323,182 323,118 36,118 36,182"/>
<text text-anchor="middle" x="72" y="140">lstm_1</text>
<polyline style="fill:none;stroke:black;" points="36,150 108,150 "/>
<text text-anchor="middle" x="72" y="172">LSTM</text>
<polyline style="fill:none;stroke:black;" points="108,182 108,118 "/>
<text text-anchor="middle" x="145" y="140">input:</text>
<polyline style="fill:none;stroke:black;" points="108,150 183,150 "/>
<text text-anchor="middle" x="145" y="172">output:</text>
<polyline style="fill:none;stroke:black;" points="183,182 183,118 "/>
<text text-anchor="middle" x="252" y="140">(None, 128, 49)</text>
<polyline style="fill:none;stroke:black;" points="183,150 323,150 "/>
<text text-anchor="middle" x="252" y="172">(None, 128, 92)</text>
</g>
<!-- 140433558462640&#45;&gt;140433558462688 -->
<g id="edge2" class="edge"><title>140433558462640&#45;&gt;140433558462688</title>
<path style="fill:none;stroke:black;" d="M179,70C179,80 179,92 179,104"/>
<polygon style="fill:black;stroke:black;" points="184,104 179,118 175,104 184,104"/>
</g>
<!-- 140434201233296 -->
<g id="node3" class="node"><title>140434201233296</title>
<polygon style="fill:none;stroke:black;" points="36,294 323,294 323,230 36,230 36,294"/>
<text text-anchor="middle" x="72" y="252">lstm_2</text>
<polyline style="fill:none;stroke:black;" points="36,262 108,262 "/>
<text text-anchor="middle" x="72" y="284">LSTM</text>
<polyline style="fill:none;stroke:black;" points="108,294 108,230 "/>
<text text-anchor="middle" x="145" y="252">input:</text>
<polyline style="fill:none;stroke:black;" points="108,262 183,262 "/>
<text text-anchor="middle" x="145" y="284">output:</text>
<polyline style="fill:none;stroke:black;" points="183,294 183,230 "/>
<text text-anchor="middle" x="252" y="252">(None, 128, 92)</text>
<polyline style="fill:none;stroke:black;" points="183,262 323,262 "/>
<text text-anchor="middle" x="252" y="284">(None, 128, 92)</text>
</g>
<!-- 140433558462688&#45;&gt;140434201233296 -->
<g id="edge4" class="edge"><title>140433558462688&#45;&gt;140434201233296</title>
<path style="fill:none;stroke:black;" d="M179,182C179,192 179,204 179,216"/>
<polygon style="fill:black;stroke:black;" points="184,216 179,230 175,216 184,216"/>
</g>
<!-- 140433558255696 -->
<g id="node4" class="node"><title>140433558255696</title>
<polygon style="fill:none;stroke:black;" points="36,406 323,406 323,342 36,342 36,406"/>
<text text-anchor="middle" x="72" y="364">lstm_3</text>
<polyline style="fill:none;stroke:black;" points="36,374 108,374 "/>
<text text-anchor="middle" x="72" y="396">LSTM</text>
<polyline style="fill:none;stroke:black;" points="108,406 108,342 "/>
<text text-anchor="middle" x="145" y="364">input:</text>
<polyline style="fill:none;stroke:black;" points="108,374 183,374 "/>
<text text-anchor="middle" x="145" y="396">output:</text>
<polyline style="fill:none;stroke:black;" points="183,406 183,342 "/>
<text text-anchor="middle" x="252" y="364">(None, 128, 92)</text>
<polyline style="fill:none;stroke:black;" points="183,374 323,374 "/>
<text text-anchor="middle" x="252" y="396">(None, 92)</text>
</g>
<!-- 140434201233296&#45;&gt;140433558255696 -->
<g id="edge6" class="edge"><title>140434201233296&#45;&gt;140433558255696</title>
<path style="fill:none;stroke:black;" d="M179,294C179,304 179,316 179,328"/>
<polygon style="fill:black;stroke:black;" points="184,328 179,342 175,328 184,328"/>
</g>
<!-- 140433560123712 -->
<g id="node5" class="node"><title>140433560123712</title>
<polygon style="fill:none;stroke:black;" points="49,518 309,518 309,454 49,454 49,518"/>
<text text-anchor="middle" x="91" y="476">dense_1</text>
<polyline style="fill:none;stroke:black;" points="49,486 132,486 "/>
<text text-anchor="middle" x="91" y="508">Dense</text>
<polyline style="fill:none;stroke:black;" points="132,518 132,454 "/>
<text text-anchor="middle" x="169" y="476">input:</text>
<polyline style="fill:none;stroke:black;" points="132,486 207,486 "/>
<text text-anchor="middle" x="169" y="508">output:</text>
<polyline style="fill:none;stroke:black;" points="207,518 207,454 "/>
<text text-anchor="middle" x="257" y="476">(None, 92)</text>
<polyline style="fill:none;stroke:black;" points="207,486 309,486 "/>
<text text-anchor="middle" x="257" y="508">(None, 1)</text>
</g>
<!-- 140433558255696&#45;&gt;140433560123712 -->
<g id="edge8" class="edge"><title>140433558255696&#45;&gt;140433560123712</title>
<path style="fill:none;stroke:black;" d="M179,406C179,416 179,428 179,440"/>
<polygon style="fill:black;stroke:black;" points="184,440 179,454 175,440 184,440"/>
</g>
</g>
</svg>
