<?xml version="1.0" encoding="UTF-8" standalone="no"?>
<!DOCTYPE svg PUBLIC "-//W3C//DTD SVG 1.0//EN"
 "http://www.w3.org/TR/2001/REC-SVG-20010904/DTD/svg10.dtd" [
 <!ATTLIST svg xmlns:xlink CDATA #FIXED "http://www.w3.org/1999/xlink">
]>
<!-- Generated by dot version 2.7.20060111.0540 (Fri Sep  3 08:16:42 UTC 2010)
     For user: (thomas) Thomas,,, -->
<!-- Title: G Pages: 1 -->
<svg width="548px" height="1892px"
 viewBox = "0 0 411 1419"
 xmlns="http://www.w3.org/2000/svg" xmlns:xlink="http://www.w3.org/1999/xlink">
<g id="graph0" class="graph" style="font-family:Times-Roman;font-size:14.00;">
<title>G</title>
<polygon style="fill:white;stroke:white;" points="0,1419 0,-11 422,-11 422,1419 0,1419"/>
<!-- 140696963804528 -->
<g id="node1" class="node"><title>140696963804528</title>
<polygon style="fill:none;stroke:black;" points="12,70 400,70 400,6 12,6 12,70"/>
<text text-anchor="middle" x="88" y="28">conv2d_21_input</text>
<polyline style="fill:none;stroke:black;" points="12,38 164,38 "/>
<text text-anchor="middle" x="88" y="60">InputLayer</text>
<polyline style="fill:none;stroke:black;" points="164,70 164,6 "/>
<text text-anchor="middle" x="202" y="28">input:</text>
<polyline style="fill:none;stroke:black;" points="164,38 239,38 "/>
<text text-anchor="middle" x="202" y="60">output:</text>
<polyline style="fill:none;stroke:black;" points="239,70 239,6 "/>
<text text-anchor="middle" x="319" y="28">[(None, 64, 64, 1)]</text>
<polyline style="fill:none;stroke:black;" points="239,38 400,38 "/>
<text text-anchor="middle" x="319" y="60">[(None, 64, 64, 1)]</text>
</g>
<!-- 140696963666976 -->
<g id="node2" class="node"><title>140696963666976</title>
<polygon style="fill:none;stroke:black;" points="38,182 375,182 375,118 38,118 38,182"/>
<text text-anchor="middle" x="90" y="140">conv2d_21</text>
<polyline style="fill:none;stroke:black;" points="38,150 142,150 "/>
<text text-anchor="middle" x="90" y="172">Conv2D</text>
<polyline style="fill:none;stroke:black;" points="142,182 142,118 "/>
<text text-anchor="middle" x="179" y="140">input:</text>
<polyline style="fill:none;stroke:black;" points="142,150 216,150 "/>
<text text-anchor="middle" x="179" y="172">output:</text>
<polyline style="fill:none;stroke:black;" points="216,182 216,118 "/>
<text text-anchor="middle" x="295" y="140">(None, 64, 64, 1)</text>
<polyline style="fill:none;stroke:black;" points="216,150 375,150 "/>
<text text-anchor="middle" x="295" y="172">(None, 64, 64, 16)</text>
</g>
<!-- 140696963804528&#45;&gt;140696963666976 -->
<g id="edge2" class="edge"><title>140696963804528&#45;&gt;140696963666976</title>
<path style="fill:none;stroke:black;" d="M206,70C206,80 206,92 206,104"/>
<polygon style="fill:black;stroke:black;" points="211,104 206,118 202,104 211,104"/>
</g>
<!-- 140696967768880 -->
<g id="node3" class="node"><title>140696967768880</title>
<polygon style="fill:none;stroke:black;" points="38,294 375,294 375,230 38,230 38,294"/>
<text text-anchor="middle" x="90" y="252">conv2d_22</text>
<polyline style="fill:none;stroke:black;" points="38,262 142,262 "/>
<text text-anchor="middle" x="90" y="284">Conv2D</text>
<polyline style="fill:none;stroke:black;" points="142,294 142,230 "/>
<text text-anchor="middle" x="179" y="252">input:</text>
<polyline style="fill:none;stroke:black;" points="142,262 216,262 "/>
<text text-anchor="middle" x="179" y="284">output:</text>
<polyline style="fill:none;stroke:black;" points="216,294 216,230 "/>
<text text-anchor="middle" x="295" y="252">(None, 64, 64, 16)</text>
<polyline style="fill:none;stroke:black;" points="216,262 375,262 "/>
<text text-anchor="middle" x="295" y="284">(None, 60, 60, 16)</text>
</g>
<!-- 140696963666976&#45;&gt;140696967768880 -->
<g id="edge4" class="edge"><title>140696963666976&#45;&gt;140696967768880</title>
<path style="fill:none;stroke:black;" d="M206,182C206,192 206,204 206,216"/>
<polygon style="fill:black;stroke:black;" points="211,216 206,230 202,216 211,216"/>
</g>
<!-- 140696966153936 -->
<g id="node4" class="node"><title>140696966153936</title>
<polygon style="fill:none;stroke:black;" points="6,406 406,406 406,342 6,342 6,406"/>
<text text-anchor="middle" x="88" y="364">max_pooling2d_11</text>
<polyline style="fill:none;stroke:black;" points="6,374 172,374 "/>
<text text-anchor="middle" x="88" y="396">MaxPooling2D</text>
<polyline style="fill:none;stroke:black;" points="172,406 172,342 "/>
<text text-anchor="middle" x="210" y="364">input:</text>
<polyline style="fill:none;stroke:black;" points="172,374 247,374 "/>
<text text-anchor="middle" x="210" y="396">output:</text>
<polyline style="fill:none;stroke:black;" points="247,406 247,342 "/>
<text text-anchor="middle" x="326" y="364">(None, 60, 60, 16)</text>
<polyline style="fill:none;stroke:black;" points="247,374 406,374 "/>
<text text-anchor="middle" x="326" y="396">(None, 30, 30, 16)</text>
</g>
<!-- 140696967768880&#45;&gt;140696966153936 -->
<g id="edge6" class="edge"><title>140696967768880&#45;&gt;140696966153936</title>
<path style="fill:none;stroke:black;" d="M206,294C206,304 206,316 206,328"/>
<polygon style="fill:black;stroke:black;" points="211,328 206,342 202,328 211,328"/>
</g>
<!-- 140696966402720 -->
<g id="node5" class="node"><title>140696966402720</title>
<polygon style="fill:none;stroke:black;" points="35,518 376,518 376,454 35,454 35,518"/>
<text text-anchor="middle" x="88" y="476">dropout_16</text>
<polyline style="fill:none;stroke:black;" points="35,486 143,486 "/>
<text text-anchor="middle" x="88" y="508">Dropout</text>
<polyline style="fill:none;stroke:black;" points="143,518 143,454 "/>
<text text-anchor="middle" x="180" y="476">input:</text>
<polyline style="fill:none;stroke:black;" points="143,486 218,486 "/>
<text text-anchor="middle" x="180" y="508">output:</text>
<polyline style="fill:none;stroke:black;" points="218,518 218,454 "/>
<text text-anchor="middle" x="296" y="476">(None, 30, 30, 16)</text>
<polyline style="fill:none;stroke:black;" points="218,486 376,486 "/>
<text text-anchor="middle" x="296" y="508">(None, 30, 30, 16)</text>
</g>
<!-- 140696966153936&#45;&gt;140696966402720 -->
<g id="edge8" class="edge"><title>140696966153936&#45;&gt;140696966402720</title>
<path style="fill:none;stroke:black;" d="M206,406C206,416 206,428 206,440"/>
<polygon style="fill:black;stroke:black;" points="211,440 206,454 202,440 211,440"/>
</g>
<!-- 140696967892320 -->
<g id="node6" class="node"><title>140696967892320</title>
<polygon style="fill:none;stroke:black;" points="38,630 375,630 375,566 38,566 38,630"/>
<text text-anchor="middle" x="90" y="588">conv2d_23</text>
<polyline style="fill:none;stroke:black;" points="38,598 142,598 "/>
<text text-anchor="middle" x="90" y="620">Conv2D</text>
<polyline style="fill:none;stroke:black;" points="142,630 142,566 "/>
<text text-anchor="middle" x="179" y="588">input:</text>
<polyline style="fill:none;stroke:black;" points="142,598 216,598 "/>
<text text-anchor="middle" x="179" y="620">output:</text>
<polyline style="fill:none;stroke:black;" points="216,630 216,566 "/>
<text text-anchor="middle" x="295" y="588">(None, 30, 30, 16)</text>
<polyline style="fill:none;stroke:black;" points="216,598 375,598 "/>
<text text-anchor="middle" x="295" y="620">(None, 30, 30, 16)</text>
</g>
<!-- 140696966402720&#45;&gt;140696967892320 -->
<g id="edge10" class="edge"><title>140696966402720&#45;&gt;140696967892320</title>
<path style="fill:none;stroke:black;" d="M206,518C206,528 206,540 206,552"/>
<polygon style="fill:black;stroke:black;" points="211,552 206,566 202,552 211,552"/>
</g>
<!-- 140696967984416 -->
<g id="node7" class="node"><title>140696967984416</title>
<polygon style="fill:none;stroke:black;" points="38,742 375,742 375,678 38,678 38,742"/>
<text text-anchor="middle" x="90" y="700">conv2d_24</text>
<polyline style="fill:none;stroke:black;" points="38,710 142,710 "/>
<text text-anchor="middle" x="90" y="732">Conv2D</text>
<polyline style="fill:none;stroke:black;" points="142,742 142,678 "/>
<text text-anchor="middle" x="179" y="700">input:</text>
<polyline style="fill:none;stroke:black;" points="142,710 216,710 "/>
<text text-anchor="middle" x="179" y="732">output:</text>
<polyline style="fill:none;stroke:black;" points="216,742 216,678 "/>
<text text-anchor="middle" x="295" y="700">(None, 30, 30, 16)</text>
<polyline style="fill:none;stroke:black;" points="216,710 375,710 "/>
<text text-anchor="middle" x="295" y="732">(None, 28, 28, 16)</text>
</g>
<!-- 140696967892320&#45;&gt;140696967984416 -->
<g id="edge12" class="edge"><title>140696967892320&#45;&gt;140696967984416</title>
<path style="fill:none;stroke:black;" d="M206,630C206,640 206,652 206,664"/>
<polygon style="fill:black;stroke:black;" points="211,664 206,678 202,664 211,664"/>
</g>
<!-- 140696966403536 -->
<g id="node8" class="node"><title>140696966403536</title>
<polygon style="fill:none;stroke:black;" points="6,854 406,854 406,790 6,790 6,854"/>
<text text-anchor="middle" x="88" y="812">max_pooling2d_12</text>
<polyline style="fill:none;stroke:black;" points="6,822 172,822 "/>
<text text-anchor="middle" x="88" y="844">MaxPooling2D</text>
<polyline style="fill:none;stroke:black;" points="172,854 172,790 "/>
<text text-anchor="middle" x="210" y="812">input:</text>
<polyline style="fill:none;stroke:black;" points="172,822 247,822 "/>
<text text-anchor="middle" x="210" y="844">output:</text>
<polyline style="fill:none;stroke:black;" points="247,854 247,790 "/>
<text text-anchor="middle" x="326" y="812">(None, 28, 28, 16)</text>
<polyline style="fill:none;stroke:black;" points="247,822 406,822 "/>
<text text-anchor="middle" x="326" y="844">(None, 14, 14, 16)</text>
</g>
<!-- 140696967984416&#45;&gt;140696966403536 -->
<g id="edge14" class="edge"><title>140696967984416&#45;&gt;140696966403536</title>
<path style="fill:none;stroke:black;" d="M206,742C206,752 206,764 206,776"/>
<polygon style="fill:black;stroke:black;" points="211,776 206,790 202,776 211,776"/>
</g>
<!-- 140696966403152 -->
<g id="node9" class="node"><title>140696966403152</title>
<polygon style="fill:none;stroke:black;" points="35,966 376,966 376,902 35,902 35,966"/>
<text text-anchor="middle" x="88" y="924">dropout_17</text>
<polyline style="fill:none;stroke:black;" points="35,934 143,934 "/>
<text text-anchor="middle" x="88" y="956">Dropout</text>
<polyline style="fill:none;stroke:black;" points="143,966 143,902 "/>
<text text-anchor="middle" x="180" y="924">input:</text>
<polyline style="fill:none;stroke:black;" points="143,934 218,934 "/>
<text text-anchor="middle" x="180" y="956">output:</text>
<polyline style="fill:none;stroke:black;" points="218,966 218,902 "/>
<text text-anchor="middle" x="296" y="924">(None, 14, 14, 16)</text>
<polyline style="fill:none;stroke:black;" points="218,934 376,934 "/>
<text text-anchor="middle" x="296" y="956">(None, 14, 14, 16)</text>
</g>
<!-- 140696966403536&#45;&gt;140696966403152 -->
<g id="edge16" class="edge"><title>140696966403536&#45;&gt;140696966403152</title>
<path style="fill:none;stroke:black;" d="M206,854C206,864 206,876 206,888"/>
<polygon style="fill:black;stroke:black;" points="211,888 206,902 202,888 211,888"/>
</g>
<!-- 140696974018016 -->
<g id="node10" class="node"><title>140696974018016</title>
<polygon style="fill:none;stroke:black;" points="46,1078 367,1078 367,1014 46,1014 46,1078"/>
<text text-anchor="middle" x="90" y="1036">flatten_6</text>
<polyline style="fill:none;stroke:black;" points="46,1046 134,1046 "/>
<text text-anchor="middle" x="90" y="1068">Flatten</text>
<polyline style="fill:none;stroke:black;" points="134,1078 134,1014 "/>
<text text-anchor="middle" x="171" y="1036">input:</text>
<polyline style="fill:none;stroke:black;" points="134,1046 208,1046 "/>
<text text-anchor="middle" x="171" y="1068">output:</text>
<polyline style="fill:none;stroke:black;" points="208,1078 208,1014 "/>
<text text-anchor="middle" x="287" y="1036">(None, 14, 14, 16)</text>
<polyline style="fill:none;stroke:black;" points="208,1046 367,1046 "/>
<text text-anchor="middle" x="287" y="1068">(None, 3136)</text>
</g>
<!-- 140696966403152&#45;&gt;140696974018016 -->
<g id="edge18" class="edge"><title>140696966403152&#45;&gt;140696974018016</title>
<path style="fill:none;stroke:black;" d="M206,966C206,976 206,988 206,1000"/>
<polygon style="fill:black;stroke:black;" points="211,1000 206,1014 202,1000 211,1000"/>
</g>
<!-- 140696966398496 -->
<g id="node11" class="node"><title>140696966398496</title>
<polygon style="fill:none;stroke:black;" points="62,1190 350,1190 350,1126 62,1126 62,1190"/>
<text text-anchor="middle" x="107" y="1148">dense_11</text>
<polyline style="fill:none;stroke:black;" points="62,1158 154,1158 "/>
<text text-anchor="middle" x="107" y="1180">Dense</text>
<polyline style="fill:none;stroke:black;" points="154,1190 154,1126 "/>
<text text-anchor="middle" x="191" y="1148">input:</text>
<polyline style="fill:none;stroke:black;" points="154,1158 228,1158 "/>
<text text-anchor="middle" x="191" y="1180">output:</text>
<polyline style="fill:none;stroke:black;" points="228,1190 228,1126 "/>
<text text-anchor="middle" x="288" y="1148">(None, 3136)</text>
<polyline style="fill:none;stroke:black;" points="228,1158 350,1158 "/>
<text text-anchor="middle" x="288" y="1180">(None, 128)</text>
</g>
<!-- 140696974018016&#45;&gt;140696966398496 -->
<g id="edge20" class="edge"><title>140696974018016&#45;&gt;140696966398496</title>
<path style="fill:none;stroke:black;" d="M206,1078C206,1088 206,1100 206,1112"/>
<polygon style="fill:black;stroke:black;" points="211,1112 206,1126 202,1112 211,1112"/>
</g>
<!-- 140696974017392 -->
<g id="node12" class="node"><title>140696974017392</title>
<polygon style="fill:none;stroke:black;" points="59,1302 354,1302 354,1238 59,1238 59,1302"/>
<text text-anchor="middle" x="112" y="1260">dropout_18</text>
<polyline style="fill:none;stroke:black;" points="59,1270 167,1270 "/>
<text text-anchor="middle" x="112" y="1292">Dropout</text>
<polyline style="fill:none;stroke:black;" points="167,1302 167,1238 "/>
<text text-anchor="middle" x="204" y="1260">input:</text>
<polyline style="fill:none;stroke:black;" points="167,1270 242,1270 "/>
<text text-anchor="middle" x="204" y="1292">output:</text>
<polyline style="fill:none;stroke:black;" points="242,1302 242,1238 "/>
<text text-anchor="middle" x="298" y="1260">(None, 128)</text>
<polyline style="fill:none;stroke:black;" points="242,1270 354,1270 "/>
<text text-anchor="middle" x="298" y="1292">(None, 128)</text>
</g>
<!-- 140696966398496&#45;&gt;140696974017392 -->
<g id="edge22" class="edge"><title>140696966398496&#45;&gt;140696974017392</title>
<path style="fill:none;stroke:black;" d="M206,1190C206,1200 206,1212 206,1224"/>
<polygon style="fill:black;stroke:black;" points="211,1224 206,1238 202,1224 211,1224"/>
</g>
<!-- 140696966404352 -->
<g id="node13" class="node"><title>140696966404352</title>
<polygon style="fill:none;stroke:black;" points="67,1414 346,1414 346,1350 67,1350 67,1414"/>
<text text-anchor="middle" x="112" y="1372">dense_12</text>
<polyline style="fill:none;stroke:black;" points="67,1382 159,1382 "/>
<text text-anchor="middle" x="112" y="1404">Dense</text>
<polyline style="fill:none;stroke:black;" points="159,1414 159,1350 "/>
<text text-anchor="middle" x="196" y="1372">input:</text>
<polyline style="fill:none;stroke:black;" points="159,1382 234,1382 "/>
<text text-anchor="middle" x="196" y="1404">output:</text>
<polyline style="fill:none;stroke:black;" points="234,1414 234,1350 "/>
<text text-anchor="middle" x="290" y="1372">(None, 128)</text>
<polyline style="fill:none;stroke:black;" points="234,1382 346,1382 "/>
<text text-anchor="middle" x="290" y="1404">(None, 1)</text>
</g>
<!-- 140696974017392&#45;&gt;140696966404352 -->
<g id="edge24" class="edge"><title>140696974017392&#45;&gt;140696966404352</title>
<path style="fill:none;stroke:black;" d="M206,1302C206,1312 206,1324 206,1336"/>
<polygon style="fill:black;stroke:black;" points="211,1336 206,1350 202,1336 211,1336"/>
</g>
</g>
</svg>
